solid OpenSCAD_Model
  facet normal 0 1 0
    outer loop
      vertex -12 0 4
      vertex -12 0 0
      vertex -16 0 4
    endloop
  endfacet
  facet normal 0 1 0
    outer loop
      vertex -16 0 4
      vertex -12 0 0
      vertex -16 0 0
    endloop
  endfacet
  facet normal -0.994522 -0.104528 0
    outer loop
      vertex -16 0 0
      vertex -15.6504 -3.32659 0
      vertex -16 0 4
    endloop
  endfacet
  facet normal -0.994522 -0.104528 0
    outer loop
      vertex -16 0 4
      vertex -15.6504 -3.32659 0
      vertex -15.6504 -3.32659 4
    endloop
  endfacet
  facet normal 0 0 -1
    outer loop
      vertex -16 0 0
      vertex -12 0 0
      vertex -15.6504 -3.32659 0
    endloop
  endfacet
  facet normal 0 0 -1
    outer loop
      vertex -15.6504 -3.32659 0
      vertex -12 0 0
      vertex -11.7378 -2.49494 0
    endloop
  endfacet
  facet normal 0 0 -1
    outer loop
      vertex -15.6504 -3.32659 0
      vertex -11.7378 -2.49494 0
      vertex -10.9625 -4.88084 0
    endloop
  endfacet
  facet normal 0 0 -1
    outer loop
      vertex -10.9625 -4.88084 0
      vertex -9.7082 -7.05342 0
      vertex -15.6504 -3.32659 0
    endloop
  endfacet
  facet normal 0 0 -1
    outer loop
      vertex -9.7082 -7.05342 0
      vertex -8.02957 -8.91774 0
      vertex -15.6504 -3.32659 0
    endloop
  endfacet
  facet normal 0 0 -1
    outer loop
      vertex -10.7061 -11.8903 0
      vertex -15.6504 -3.32659 0
      vertex -8 -13.8564 0
    endloop
  endfacet
  facet normal 0 0 -1
    outer loop
      vertex -5 -18 0
      vertex -1.25434 -11.9343 0
      vertex 5 -18 0
    endloop
  endfacet
  facet normal 0 0 -1
    outer loop
      vertex -5 -18 0
      vertex -3.7082 -11.4127 0
      vertex -1.25434 -11.9343 0
    endloop
  endfacet
  facet normal 0 0 -1
    outer loop
      vertex 10.9625 -4.88084 0
      vertex 16 0 0
      vertex 9.7082 -7.05342 0
    endloop
  endfacet
  facet normal 0 0 -1
    outer loop
      vertex 11.7378 -2.49494 0
      vertex 12 0 0
      vertex 16 0 0
    endloop
  endfacet
  facet normal 0 0 -1
    outer loop
      vertex 11.7378 -2.49494 0
      vertex 16 0 0
      vertex 10.9625 -4.88084 0
    endloop
  endfacet
  facet normal 0 0 -1
    outer loop
      vertex 9.7082 -7.05342 0
      vertex 16 0 0
      vertex 15.6504 -3.32659 0
    endloop
  endfacet
  facet normal 0 0 -1
    outer loop
      vertex 9.7082 -7.05342 0
      vertex 15.6504 -3.32659 0
      vertex 8.02957 -8.91774 0
    endloop
  endfacet
  facet normal 0 0 -1
    outer loop
      vertex 8.02957 -8.91774 0
      vertex 15.6504 -3.32659 0
      vertex 14.6167 -6.50779 0
    endloop
  endfacet
  facet normal 0 0 -1
    outer loop
      vertex 8.02957 -8.91774 0
      vertex 14.6167 -6.50779 0
      vertex 6 -10.3923 0
    endloop
  endfacet
  facet normal 0 0 -1
    outer loop
      vertex 6 -10.3923 0
      vertex 14.6167 -6.50779 0
      vertex 12.9443 -9.40456 0
    endloop
  endfacet
  facet normal 0 0 -1
    outer loop
      vertex 6 -10.3923 0
      vertex 12.9443 -9.40456 0
      vertex 3.7082 -11.4127 0
    endloop
  endfacet
  facet normal 0 0 -1
    outer loop
      vertex 3.7082 -11.4127 0
      vertex 12.9443 -9.40456 0
      vertex 10.7061 -11.8903 0
    endloop
  endfacet
  facet normal 0 0 -1
    outer loop
      vertex 3.7082 -11.4127 0
      vertex 10.7061 -11.8903 0
      vertex 1.25434 -11.9343 0
    endloop
  endfacet
  facet normal 0 0 -1
    outer loop
      vertex 1.25434 -11.9343 0
      vertex 10.7061 -11.8903 0
      vertex 8 -13.8564 0
    endloop
  endfacet
  facet normal 0 0 -1
    outer loop
      vertex 1.25434 -11.9343 0
      vertex 8 -13.8564 0
      vertex -1.25434 -11.9343 0
    endloop
  endfacet
  facet normal 0 0 -1
    outer loop
      vertex 5 -18 0
      vertex 8 -13.8564 0
      vertex 8 -36 0
    endloop
  endfacet
  facet normal 0 0 -1
    outer loop
      vertex -5 -18 0
      vertex -6 -10.3923 0
      vertex -3.7082 -11.4127 0
    endloop
  endfacet
  facet normal 0 0 -1
    outer loop
      vertex -1.25434 -11.9343 0
      vertex 8 -13.8564 0
      vertex 5 -18 0
    endloop
  endfacet
  facet normal 0 0 -1
    outer loop
      vertex -5 -18 0
      vertex -8.02957 -8.91774 0
      vertex -6 -10.3923 0
    endloop
  endfacet
  facet normal 0 0 -1
    outer loop
      vertex -8 -13.8564 0
      vertex -5 -18 0
      vertex -5 -36 0
    endloop
  endfacet
  facet normal 0 0 -1
    outer loop
      vertex -8.02957 -8.91774 0
      vertex -5 -18 0
      vertex -8 -13.8564 0
    endloop
  endfacet
  facet normal 0 0 -1
    outer loop
      vertex -8.02957 -8.91774 0
      vertex -8 -13.8564 0
      vertex -15.6504 -3.32659 0
    endloop
  endfacet
  facet normal 0 0 -1
    outer loop
      vertex -8 -13.8564 0
      vertex -5 -36 0
      vertex -8 -36 0
    endloop
  endfacet
  facet normal 0 0 -1
    outer loop
      vertex -15.6504 -3.32659 0
      vertex -10.7061 -11.8903 0
      vertex -12.9443 -9.40456 0
    endloop
  endfacet
  facet normal 0 0 -1
    outer loop
      vertex 5 -18 0
      vertex 8 -36 0
      vertex 5 -36 0
    endloop
  endfacet
  facet normal 0 0 -1
    outer loop
      vertex -14.6167 -6.50779 0
      vertex -15.6504 -3.32659 0
      vertex -12.9443 -9.40456 0
    endloop
  endfacet
  facet normal 0 0 1
    outer loop
      vertex -12 0 4
      vertex -16 0 4
      vertex -15.6504 -3.32659 4
    endloop
  endfacet
  facet normal 0 0 1
    outer loop
      vertex -12.9443 -9.40456 4
      vertex -12 0 4
      vertex -14.6167 -6.50779 4
    endloop
  endfacet
  facet normal 0 0 1
    outer loop
      vertex -14.6167 -6.50779 4
      vertex -12 0 4
      vertex -15.6504 -3.32659 4
    endloop
  endfacet
  facet normal 0 0 1
    outer loop
      vertex -11.7378 -2.49494 4
      vertex -12 0 4
      vertex -12.9443 -9.40456 4
    endloop
  endfacet
  facet normal 0 0 1
    outer loop
      vertex -10.9625 -4.88084 4
      vertex -11.7378 -2.49494 4
      vertex -10.7061 -11.8903 4
    endloop
  endfacet
  facet normal 0 0 1
    outer loop
      vertex -5 -36 4
      vertex -8 -13.8564 4
      vertex -8 -36 4
    endloop
  endfacet
  facet normal 0 0 1
    outer loop
      vertex -5 -18 4
      vertex -8 -13.8564 4
      vertex -5 -36 4
    endloop
  endfacet
  facet normal 0 0 1
    outer loop
      vertex -9.7082 -7.05342 4
      vertex -10.9625 -4.88084 4
      vertex -8 -13.8564 4
    endloop
  endfacet
  facet normal 0 0 1
    outer loop
      vertex -8.02957 -8.91774 4
      vertex -9.7082 -7.05342 4
      vertex -5 -18 4
    endloop
  endfacet
  facet normal 0 0 1
    outer loop
      vertex 8 -36 4
      vertex 5 -18 4
      vertex 5 -36 4
    endloop
  endfacet
  facet normal 0 0 1
    outer loop
      vertex 8 -13.8564 4
      vertex 5 -18 4
      vertex 8 -36 4
    endloop
  endfacet
  facet normal 0 0 1
    outer loop
      vertex 1.25434 -11.9343 4
      vertex -1.25434 -11.9343 4
      vertex 5 -18 4
    endloop
  endfacet
  facet normal 0 0 1
    outer loop
      vertex 6 -10.3923 4
      vertex 3.7082 -11.4127 4
      vertex 8 -13.8564 4
    endloop
  endfacet
  facet normal 0 0 1
    outer loop
      vertex 8.02957 -8.91774 4
      vertex 6 -10.3923 4
      vertex 10.7061 -11.8903 4
    endloop
  endfacet
  facet normal 0 0 1
    outer loop
      vertex 9.7082 -7.05342 4
      vertex 8.02957 -8.91774 4
      vertex 12.9443 -9.40456 4
    endloop
  endfacet
  facet normal 0 0 1
    outer loop
      vertex 10.9625 -4.88084 4
      vertex 9.7082 -7.05342 4
      vertex 14.6167 -6.50779 4
    endloop
  endfacet
  facet normal 0 0 1
    outer loop
      vertex 16 0 4
      vertex 12 0 4
      vertex 15.6504 -3.32659 4
    endloop
  endfacet
  facet normal 0 0 1
    outer loop
      vertex 12 0 4
      vertex 11.7378 -2.49494 4
      vertex 15.6504 -3.32659 4
    endloop
  endfacet
  facet normal 0 0 1
    outer loop
      vertex 15.6504 -3.32659 4
      vertex 10.9625 -4.88084 4
      vertex 14.6167 -6.50779 4
    endloop
  endfacet
  facet normal 0 0 1
    outer loop
      vertex 14.6167 -6.50779 4
      vertex 9.7082 -7.05342 4
      vertex 12.9443 -9.40456 4
    endloop
  endfacet
  facet normal 0 0 1
    outer loop
      vertex 12.9443 -9.40456 4
      vertex 8.02957 -8.91774 4
      vertex 10.7061 -11.8903 4
    endloop
  endfacet
  facet normal 0 0 1
    outer loop
      vertex 10.7061 -11.8903 4
      vertex 6 -10.3923 4
      vertex 8 -13.8564 4
    endloop
  endfacet
  facet normal 0 0 1
    outer loop
      vertex 8 -13.8564 4
      vertex 3.7082 -11.4127 4
      vertex 5 -18 4
    endloop
  endfacet
  facet normal 0 0 1
    outer loop
      vertex 3.7082 -11.4127 4
      vertex 1.25434 -11.9343 4
      vertex 5 -18 4
    endloop
  endfacet
  facet normal 0 0 1
    outer loop
      vertex 5 -18 4
      vertex -1.25434 -11.9343 4
      vertex -5 -18 4
    endloop
  endfacet
  facet normal 0 0 1
    outer loop
      vertex -1.25434 -11.9343 4
      vertex -3.7082 -11.4127 4
      vertex -5 -18 4
    endloop
  endfacet
  facet normal 0 0 1
    outer loop
      vertex -3.7082 -11.4127 4
      vertex -6 -10.3923 4
      vertex -5 -18 4
    endloop
  endfacet
  facet normal 0 0 1
    outer loop
      vertex -6 -10.3923 4
      vertex -8.02957 -8.91774 4
      vertex -5 -18 4
    endloop
  endfacet
  facet normal 0 0 1
    outer loop
      vertex -5 -18 4
      vertex -9.7082 -7.05342 4
      vertex -8 -13.8564 4
    endloop
  endfacet
  facet normal 0 0 1
    outer loop
      vertex -8 -13.8564 4
      vertex -10.9625 -4.88084 4
      vertex -10.7061 -11.8903 4
    endloop
  endfacet
  facet normal 0 0 1
    outer loop
      vertex -10.7061 -11.8903 4
      vertex -11.7378 -2.49494 4
      vertex -12.9443 -9.40456 4
    endloop
  endfacet
  facet normal 0 0 1
    outer loop
      vertex 11.7378 -2.49494 4
      vertex 10.9625 -4.88084 4
      vertex 15.6504 -3.32659 4
    endloop
  endfacet
  facet normal 0.994522 0.104529 0
    outer loop
      vertex -12 0 4
      vertex -11.7378 -2.49494 4
      vertex -11.7378 -2.49494 0
    endloop
  endfacet
  facet normal 0.994522 0.104529 0
    outer loop
      vertex -12 0 0
      vertex -12 0 4
      vertex -11.7378 -2.49494 0
    endloop
  endfacet
  facet normal -0.951056 -0.309017 0
    outer loop
      vertex -15.6504 -3.32659 0
      vertex -14.6167 -6.50779 0
      vertex -15.6504 -3.32659 4
    endloop
  endfacet
  facet normal -0.951056 -0.309017 0
    outer loop
      vertex -15.6504 -3.32659 4
      vertex -14.6167 -6.50779 0
      vertex -14.6167 -6.50779 4
    endloop
  endfacet
  facet normal -0.866025 -0.5 0
    outer loop
      vertex -14.6167 -6.50779 0
      vertex -12.9443 -9.40456 0
      vertex -14.6167 -6.50779 4
    endloop
  endfacet
  facet normal -0.866025 -0.5 0
    outer loop
      vertex -14.6167 -6.50779 4
      vertex -12.9443 -9.40456 0
      vertex -12.9443 -9.40456 4
    endloop
  endfacet
  facet normal -0.743145 -0.669131 0
    outer loop
      vertex -12.9443 -9.40456 0
      vertex -10.7061 -11.8903 0
      vertex -12.9443 -9.40456 4
    endloop
  endfacet
  facet normal -0.743145 -0.669131 0
    outer loop
      vertex -12.9443 -9.40456 4
      vertex -10.7061 -11.8903 0
      vertex -10.7061 -11.8903 4
    endloop
  endfacet
  facet normal -0.587785 -0.809017 0
    outer loop
      vertex -10.7061 -11.8903 4
      vertex -10.7061 -11.8903 0
      vertex -8 -13.8564 0
    endloop
  endfacet
  facet normal -0.587785 -0.809017 0
    outer loop
      vertex -8 -13.8564 4
      vertex -10.7061 -11.8903 4
      vertex -8 -13.8564 0
    endloop
  endfacet
  facet normal -1 0 0
    outer loop
      vertex -8 -36 0
      vertex -8 -36 4
      vertex -8 -13.8564 0
    endloop
  endfacet
  facet normal -1 0 0
    outer loop
      vertex -8 -13.8564 0
      vertex -8 -36 4
      vertex -8 -13.8564 4
    endloop
  endfacet
  facet normal 0 -1 0
    outer loop
      vertex -8 -36 4
      vertex -8 -36 0
      vertex -5 -36 0
    endloop
  endfacet
  facet normal 0 -1 0
    outer loop
      vertex -5 -36 4
      vertex -8 -36 4
      vertex -5 -36 0
    endloop
  endfacet
  facet normal 1 0 0
    outer loop
      vertex -5 -18 0
      vertex -5 -18 4
      vertex -5 -36 4
    endloop
  endfacet
  facet normal 1 0 0
    outer loop
      vertex -5 -36 0
      vertex -5 -18 0
      vertex -5 -36 4
    endloop
  endfacet
  facet normal 0 -1 0
    outer loop
      vertex 5 -18 0
      vertex 5 -18 4
      vertex -5 -18 4
    endloop
  endfacet
  facet normal 0 -1 0
    outer loop
      vertex -5 -18 0
      vertex 5 -18 0
      vertex -5 -18 4
    endloop
  endfacet
  facet normal -1 0 0
    outer loop
      vertex 5 -18 4
      vertex 5 -18 0
      vertex 5 -36 4
    endloop
  endfacet
  facet normal -1 0 0
    outer loop
      vertex 5 -36 4
      vertex 5 -18 0
      vertex 5 -36 0
    endloop
  endfacet
  facet normal 0 -1 0
    outer loop
      vertex 5 -36 4
      vertex 5 -36 0
      vertex 8 -36 0
    endloop
  endfacet
  facet normal 0 -1 0
    outer loop
      vertex 8 -36 4
      vertex 5 -36 4
      vertex 8 -36 0
    endloop
  endfacet
  facet normal 1 0 0
    outer loop
      vertex 8 -36 4
      vertex 8 -36 0
      vertex 8 -13.8564 0
    endloop
  endfacet
  facet normal 1 0 0
    outer loop
      vertex 8 -13.8564 4
      vertex 8 -36 4
      vertex 8 -13.8564 0
    endloop
  endfacet
  facet normal 0.587785 -0.809017 0
    outer loop
      vertex 8 -13.8564 4
      vertex 8 -13.8564 0
      vertex 10.7061 -11.8903 0
    endloop
  endfacet
  facet normal 0.587785 -0.809017 0
    outer loop
      vertex 10.7061 -11.8903 4
      vertex 8 -13.8564 4
      vertex 10.7061 -11.8903 0
    endloop
  endfacet
  facet normal 0.743145 -0.669131 0
    outer loop
      vertex 10.7061 -11.8903 4
      vertex 10.7061 -11.8903 0
      vertex 12.9443 -9.40456 0
    endloop
  endfacet
  facet normal 0.743145 -0.669131 0
    outer loop
      vertex 12.9443 -9.40456 4
      vertex 10.7061 -11.8903 4
      vertex 12.9443 -9.40456 0
    endloop
  endfacet
  facet normal 0.866025 -0.5 0
    outer loop
      vertex 12.9443 -9.40456 4
      vertex 12.9443 -9.40456 0
      vertex 14.6167 -6.50779 0
    endloop
  endfacet
  facet normal 0.866025 -0.5 0
    outer loop
      vertex 14.6167 -6.50779 4
      vertex 12.9443 -9.40456 4
      vertex 14.6167 -6.50779 0
    endloop
  endfacet
  facet normal 0.951056 -0.309017 0
    outer loop
      vertex 14.6167 -6.50779 4
      vertex 14.6167 -6.50779 0
      vertex 15.6504 -3.32659 0
    endloop
  endfacet
  facet normal 0.951056 -0.309017 0
    outer loop
      vertex 15.6504 -3.32659 4
      vertex 14.6167 -6.50779 4
      vertex 15.6504 -3.32659 0
    endloop
  endfacet
  facet normal 0.994522 -0.104528 0
    outer loop
      vertex 15.6504 -3.32659 4
      vertex 15.6504 -3.32659 0
      vertex 16 0 0
    endloop
  endfacet
  facet normal 0.994522 -0.104528 0
    outer loop
      vertex 16 0 4
      vertex 15.6504 -3.32659 4
      vertex 16 0 0
    endloop
  endfacet
  facet normal 0 1 0
    outer loop
      vertex 16 0 4
      vertex 16 0 0
      vertex 12 0 4
    endloop
  endfacet
  facet normal 0 1 0
    outer loop
      vertex 12 0 4
      vertex 16 0 0
      vertex 12 0 0
    endloop
  endfacet
  facet normal -0.994522 0.104529 0
    outer loop
      vertex 12 0 4
      vertex 12 0 0
      vertex 11.7378 -2.49494 4
    endloop
  endfacet
  facet normal -0.994522 0.104529 0
    outer loop
      vertex 11.7378 -2.49494 4
      vertex 12 0 0
      vertex 11.7378 -2.49494 0
    endloop
  endfacet
  facet normal -0.951057 0.309017 0
    outer loop
      vertex 11.7378 -2.49494 4
      vertex 11.7378 -2.49494 0
      vertex 10.9625 -4.88084 4
    endloop
  endfacet
  facet normal -0.951057 0.309017 0
    outer loop
      vertex 10.9625 -4.88084 4
      vertex 11.7378 -2.49494 0
      vertex 10.9625 -4.88084 0
    endloop
  endfacet
  facet normal -0.866025 0.5 0
    outer loop
      vertex 10.9625 -4.88084 4
      vertex 10.9625 -4.88084 0
      vertex 9.7082 -7.05342 4
    endloop
  endfacet
  facet normal -0.866025 0.5 0
    outer loop
      vertex 9.7082 -7.05342 4
      vertex 10.9625 -4.88084 0
      vertex 9.7082 -7.05342 0
    endloop
  endfacet
  facet normal -0.743145 0.669131 0
    outer loop
      vertex 9.7082 -7.05342 4
      vertex 9.7082 -7.05342 0
      vertex 8.02957 -8.91774 4
    endloop
  endfacet
  facet normal -0.743145 0.669131 0
    outer loop
      vertex 8.02957 -8.91774 4
      vertex 9.7082 -7.05342 0
      vertex 8.02957 -8.91774 0
    endloop
  endfacet
  facet normal -0.587785 0.809017 0
    outer loop
      vertex 8.02957 -8.91774 4
      vertex 8.02957 -8.91774 0
      vertex 6 -10.3923 4
    endloop
  endfacet
  facet normal -0.587785 0.809017 0
    outer loop
      vertex 6 -10.3923 4
      vertex 8.02957 -8.91774 0
      vertex 6 -10.3923 0
    endloop
  endfacet
  facet normal -0.406737 0.913546 0
    outer loop
      vertex 6 -10.3923 4
      vertex 6 -10.3923 0
      vertex 3.7082 -11.4127 4
    endloop
  endfacet
  facet normal -0.406737 0.913546 0
    outer loop
      vertex 3.7082 -11.4127 4
      vertex 6 -10.3923 0
      vertex 3.7082 -11.4127 0
    endloop
  endfacet
  facet normal -0.207912 0.978148 0
    outer loop
      vertex 3.7082 -11.4127 4
      vertex 3.7082 -11.4127 0
      vertex 1.25434 -11.9343 4
    endloop
  endfacet
  facet normal -0.207912 0.978148 0
    outer loop
      vertex 1.25434 -11.9343 4
      vertex 3.7082 -11.4127 0
      vertex 1.25434 -11.9343 0
    endloop
  endfacet
  facet normal 0 1 0
    outer loop
      vertex 1.25434 -11.9343 4
      vertex 1.25434 -11.9343 0
      vertex -1.25434 -11.9343 4
    endloop
  endfacet
  facet normal 0 1 0
    outer loop
      vertex -1.25434 -11.9343 4
      vertex 1.25434 -11.9343 0
      vertex -1.25434 -11.9343 0
    endloop
  endfacet
  facet normal 0.207912 0.978148 0
    outer loop
      vertex -1.25434 -11.9343 4
      vertex -1.25434 -11.9343 0
      vertex -3.7082 -11.4127 4
    endloop
  endfacet
  facet normal 0.207912 0.978148 0
    outer loop
      vertex -3.7082 -11.4127 4
      vertex -1.25434 -11.9343 0
      vertex -3.7082 -11.4127 0
    endloop
  endfacet
  facet normal 0.406737 0.913546 0
    outer loop
      vertex -3.7082 -11.4127 4
      vertex -3.7082 -11.4127 0
      vertex -6 -10.3923 4
    endloop
  endfacet
  facet normal 0.406737 0.913546 0
    outer loop
      vertex -6 -10.3923 4
      vertex -3.7082 -11.4127 0
      vertex -6 -10.3923 0
    endloop
  endfacet
  facet normal 0.587785 0.809017 0
    outer loop
      vertex -6 -10.3923 4
      vertex -6 -10.3923 0
      vertex -8.02957 -8.91774 4
    endloop
  endfacet
  facet normal 0.587785 0.809017 0
    outer loop
      vertex -8.02957 -8.91774 4
      vertex -6 -10.3923 0
      vertex -8.02957 -8.91774 0
    endloop
  endfacet
  facet normal 0.743145 0.669131 0
    outer loop
      vertex -9.7082 -7.05342 4
      vertex -8.02957 -8.91774 4
      vertex -8.02957 -8.91774 0
    endloop
  endfacet
  facet normal 0.743145 0.669131 0
    outer loop
      vertex -9.7082 -7.05342 0
      vertex -9.7082 -7.05342 4
      vertex -8.02957 -8.91774 0
    endloop
  endfacet
  facet normal 0.866025 0.5 0
    outer loop
      vertex -10.9625 -4.88084 4
      vertex -9.7082 -7.05342 4
      vertex -9.7082 -7.05342 0
    endloop
  endfacet
  facet normal 0.866025 0.5 0
    outer loop
      vertex -10.9625 -4.88084 0
      vertex -10.9625 -4.88084 4
      vertex -9.7082 -7.05342 0
    endloop
  endfacet
  facet normal 0.951057 0.309017 0
    outer loop
      vertex -11.7378 -2.49494 4
      vertex -10.9625 -4.88084 4
      vertex -10.9625 -4.88084 0
    endloop
  endfacet
  facet normal 0.951057 0.309017 0
    outer loop
      vertex -11.7378 -2.49494 0
      vertex -11.7378 -2.49494 4
      vertex -10.9625 -4.88084 0
    endloop
  endfacet
endsolid OpenSCAD_Model
