M48
INCH
T01C0.0200
T02C0.0400
T03C0.0300
T04C0.0944
T05C0.1259
%
T01
X-002500Y+005000
X-003000Y+004000
X+007500Y-001000
X+014000Y-006500
X+014000Y-001500
X+012500Y-001500
X+015000Y-005000
X+011500Y-001000
X+006000Y-000500
X+008500Y+000000
X-000700Y-000846
X-000700Y+000700
X-004712Y-000350
X-004000Y+006300
X+003447Y+009800
X+004007Y+000000
X+004007Y+003150
X+004900Y+004500
X+014102Y+000700
X+015676Y+001050
X+012750Y-004500
X-005650Y-008000
X-005100Y-007400
X+010200Y-004250
X+010200Y-002000
X+002950Y-002100
X+006500Y-003650
X+003700Y-002550
X+002200Y-004450
X+001050Y-005800
X+000150Y-006350
X-002000Y+007972
X-005905Y+007000
X-006496Y+008000
X-006299Y+009000
X-006692Y+010000
X+004330Y-008100
X+005905Y-008100
X+003937Y-007700
X+005511Y-007700
X+004133Y-007250
X+005905Y-007250
X+003937Y-006703
X+005511Y-006703
X-006102Y-004500
X-004330Y-003477
X-006113Y-002744
X-007342Y-001771
X-003000Y-009500
X-002000Y-009251
X+001650Y-005027
X-001000Y-009448
X+000000Y-009251
X+001000Y-009251
X+002000Y-009251
X-003950Y-007000
X-003950Y-008200
X+004133Y-008600
X+005708Y-008600
X+014370Y-005500
X+013696Y+009055
X+009448Y+009055
T02
X-009000Y-000500
X-009000Y-001500
X-009000Y-002500
X-009000Y-003500
X-009000Y-004500
X-009000Y-005500
X-009000Y-006500
X-009000Y-007500
X-009000Y-008500
X+003000Y+012500
X+002000Y+012500
X+001000Y+012500
X+000000Y+012500
X-001000Y+012500
X-002000Y+012500
X-003000Y+012500
X-004000Y+012500
X-005000Y+012500
X-009000Y+010000
X-009000Y+009000
X-009000Y+008000
X-009000Y+007000
X-009000Y+006000
X-009000Y+005000
X-009000Y+004000
X-009000Y+003000
X-009000Y+002000
X-003000Y-011000
X-002000Y-011000
X-001000Y-011000
X+000000Y-011000
X+001000Y-011000
X+002000Y-011000
X+003000Y-011000
X+006500Y-011000
X+007500Y-011000
X+008500Y-011000
X+009500Y-011000
X+017500Y-005500
X+017500Y-006500
X+017500Y-007500
T03
X+014102Y+003996
X+012893Y+004996
X+013299Y+003996
X+012070Y+004996
X+014901Y+003996
X+013696Y+005000
X+012496Y+003996
X+014500Y+005000
T04
X+010543Y+005901
X+016448Y+005901
T05
X-009547Y+012992
X+018110Y+012893
X+018208Y-011712
X-009547Y-011811
M30
